<?xml version="1.0" encoding="UTF-8" standalone="no"?>
<!-- Created with Inkscape (http://www.inkscape.org/) -->

<svg
   width="512"
   height="512"
   viewBox="0 0 512 512"
   version="1.1"
   id="svg5"
   inkscape:export-filename="close.svg"
   inkscape:export-xdpi="96"
   inkscape:export-ydpi="96"
   xmlns:inkscape="http://www.inkscape.org/namespaces/inkscape"
   xmlns:sodipodi="http://sodipodi.sourceforge.net/DTD/sodipodi-0.dtd"
   xmlns="http://www.w3.org/2000/svg"
   xmlns:svg="http://www.w3.org/2000/svg">
  <sodipodi:namedview
     id="namedview7"
     pagecolor="#505050"
     bordercolor="#ffffff"
     borderopacity="1"
     inkscape:showpageshadow="0"
     inkscape:pageopacity="0"
     inkscape:pagecheckerboard="1"
     inkscape:deskcolor="#505050"
     inkscape:document-units="px"
     showgrid="true">
    <inkscape:grid
       type="xygrid"
       id="grid9"
       spacingx="16"
       spacingy="16"
       empspacing="4"
       dotted="false" />
  </sodipodi:namedview>
  <defs
     id="defs2" />
  <g
     inkscape:label="Layer 1"
     inkscape:groupmode="layer"
     id="layer1">
    <path
       id="path823"
       style="fill:#e6e6e6;stroke-width:1.34459"
       d="m 499.39767,12.602331 a 43.027035,43.027035 0 0 0 -60.84942,0 L 256,195.15059 73.451754,12.602331 a 43.027035,43.027035 0 0 0 -60.849419,0 43.027035,43.027035 0 0 0 0,60.84942 L 195.15059,256 12.602335,438.54825 a 43.027035,43.027035 0 0 0 0,60.84942 43.027035,43.027035 0 0 0 60.849419,0 L 256,316.84941 438.54825,499.39767 a 43.027035,43.027035 0 0 0 60.84942,0 43.027035,43.027035 0 0 0 0,-60.84942 L 316.84941,256 499.39767,73.451751 a 43.027035,43.027035 0 0 0 0,-60.84942 z" />
  </g>
</svg>
